<svg width="56" height="56" viewBox="0 0 56 56" fill="none" xmlns="http://www.w3.org/2000/svg">
<path d="M27.9999 22.6667L27.1749 23.4917L27.9999 24.3166L28.825 23.4917L27.9999 22.6667ZM29.1666 1.66667C29.1666 1.02234 28.6442 0.5 27.9999 0.5C27.3557 0.5 26.8333 1.02234 26.8333 1.66667H29.1666ZM15.5083 11.8249L27.1749 23.4917L28.825 21.8416L17.1582 10.175L15.5083 11.8249ZM28.825 23.4917L40.4917 11.8249L38.8415 10.175L27.1749 21.8416L28.825 23.4917ZM29.1666 22.6667V1.66667H26.8333V22.6667H29.1666Z" fill="#222222" fill-opacity="0.6"/>
<path d="M11.6665 27.333V29.6663C11.6665 32.2437 13.7558 34.333 16.3332 34.333H39.6665C42.2439 34.333 44.3332 32.2437 44.3332 29.6663V27.333" stroke="#222222" stroke-opacity="0.6"/>
<rect x="1" y="1" width="54" height="54" stroke="#EAE3E3" stroke-width="2"/>
</svg>
