<svg width="40" height="35" viewBox="0 0 40 35" fill="none" xmlns="http://www.w3.org/2000/svg">
<path d="M14.3689 33.2396L14.7378 34.2081L14.3689 33.2396ZM26.0356 29.8369L26.4045 30.8053L26.0356 29.8369ZM37.8166 7.74382L38.6416 8.46567L37.8166 7.74382ZM27.5168 16.7562L26.6917 16.0344L27.5168 16.7562ZM3.5 2.04167H36.1667V0H3.5V2.04167ZM2.33333 6.30016V3.0625H0V6.30016H2.33333ZM12.9749 16.0342L2.67505 7.02199L1.02513 8.46567L11.325 17.4781L12.9749 16.0342ZM11.6666 18.1998V32.2712H14V18.1998H11.6666ZM11.6666 32.2712C11.6666 33.6646 13.2269 34.6487 14.7378 34.2081L14 32.2712H11.6666ZM14.7378 34.2081L26.4045 30.8053L25.6667 28.8684L14 32.2712L14.7378 34.2081ZM26.4045 30.8053C27.3574 30.5274 28 29.7473 28 28.8684H25.6667L26.4045 30.8053ZM28 28.8684V18.1998H25.6667V28.8684H28ZM36.9917 7.02199L26.6917 16.0344L28.3416 17.4781L38.6416 8.46567L36.9917 7.02199ZM37.3333 3.0625V6.30016H39.6667V3.0625H37.3333ZM38.6416 8.46567C39.298 7.89133 39.6667 7.11237 39.6667 6.30016H37.3333C37.3333 6.57088 37.2104 6.83054 36.9917 7.02199L38.6416 8.46567ZM28 18.1998C28 17.9291 28.123 17.6694 28.3416 17.4781L26.6917 16.0344C26.0353 16.6088 25.6667 17.3876 25.6667 18.1998H28ZM11.325 17.4781C11.5437 17.6694 11.6666 17.9291 11.6666 18.1998H14C14 17.3876 13.6312 16.6088 12.9749 16.0342L11.325 17.4781ZM0 6.30016C0 7.11237 0.36876 7.89133 1.02513 8.46567L2.67505 7.02199C2.45625 6.83054 2.33333 6.57088 2.33333 6.30016H0ZM36.1667 2.04167C36.8109 2.04167 37.3333 2.49871 37.3333 3.0625H39.6667C39.6667 1.37112 38.0996 0 36.1667 0V2.04167ZM3.5 0C1.567 0 0 1.37112 0 3.0625H2.33333C2.33333 2.49871 2.85567 2.04167 3.5 2.04167V0Z" fill="#95979D"/>
</svg>
